<svg id="visual" viewBox="0 0 960 250" width="960" height="250" xmlns="http://www.w3.org/2000/svg" xmlns:xlink="http://www.w3.org/1999/xlink" version="1.1"><rect x="0" y="0" width="960" height="250" fill="#001220"></rect><path d="M0 92L22.8 93C45.7 94 91.3 96 137 92.3C182.7 88.7 228.3 79.3 274 77.7C319.7 76 365.3 82 411.2 86C457 90 503 92 548.8 91.3C594.7 90.7 640.3 87.3 686 86.3C731.7 85.3 777.3 86.7 823 89.3C868.7 92 914.3 96 937.2 98L960 100L960 0L937.2 0C914.3 0 868.7 0 823 0C777.3 0 731.7 0 686 0C640.3 0 594.7 0 548.8 0C503 0 457 0 411.2 0C365.3 0 319.7 0 274 0C228.3 0 182.7 0 137 0C91.3 0 45.7 0 22.8 0L0 0Z" fill="#fa7268"></path><path d="M0 70L22.8 66.5C45.7 63 91.3 56 137 57C182.7 58 228.3 67 274 70.3C319.7 73.7 365.3 71.3 411.2 72.3C457 73.3 503 77.7 548.8 79.2C594.7 80.7 640.3 79.3 686 79.7C731.7 80 777.3 82 823 77.5C868.7 73 914.3 62 937.2 56.5L960 51L960 0L937.2 0C914.3 0 868.7 0 823 0C777.3 0 731.7 0 686 0C640.3 0 594.7 0 548.8 0C503 0 457 0 411.2 0C365.3 0 319.7 0 274 0C228.3 0 182.7 0 137 0C91.3 0 45.7 0 22.8 0L0 0Z" fill="#f79973"></path><path d="M0 49L22.8 51.5C45.7 54 91.3 59 137 59.7C182.7 60.3 228.3 56.7 274 54.8C319.7 53 365.3 53 411.2 51.7C457 50.3 503 47.7 548.8 45.5C594.7 43.3 640.3 41.7 686 43.3C731.7 45 777.3 50 823 52.7C868.7 55.3 914.3 55.7 937.2 55.8L960 56L960 0L937.2 0C914.3 0 868.7 0 823 0C777.3 0 731.7 0 686 0C640.3 0 594.7 0 548.8 0C503 0 457 0 411.2 0C365.3 0 319.7 0 274 0C228.3 0 182.7 0 137 0C91.3 0 45.7 0 22.8 0L0 0Z" fill="#f3ba8e"></path><path d="M0 28L22.8 28.7C45.7 29.3 91.3 30.7 137 32.5C182.7 34.3 228.3 36.7 274 35.5C319.7 34.3 365.3 29.7 411.2 28.5C457 27.3 503 29.7 548.8 30.3C594.7 31 640.3 30 686 31.8C731.7 33.7 777.3 38.3 823 41.3C868.7 44.3 914.3 45.7 937.2 46.3L960 47L960 0L937.2 0C914.3 0 868.7 0 823 0C777.3 0 731.7 0 686 0C640.3 0 594.7 0 548.8 0C503 0 457 0 411.2 0C365.3 0 319.7 0 274 0C228.3 0 182.7 0 137 0C91.3 0 45.7 0 22.8 0L0 0Z" fill="#f1d7b4"></path><path d="M0 21L22.8 20.7C45.7 20.3 91.3 19.7 137 20.7C182.7 21.7 228.3 24.3 274 25.7C319.7 27 365.3 27 411.2 25.8C457 24.7 503 22.3 548.8 21.3C594.7 20.3 640.3 20.7 686 20.7C731.7 20.7 777.3 20.3 823 18.5C868.7 16.7 914.3 13.3 937.2 11.7L960 10L960 0L937.2 0C914.3 0 868.7 0 823 0C777.3 0 731.7 0 686 0C640.3 0 594.7 0 548.8 0C503 0 457 0 411.2 0C365.3 0 319.7 0 274 0C228.3 0 182.7 0 137 0C91.3 0 45.7 0 22.8 0L0 0Z" fill="#f5f0e1"></path></svg>