<svg id="visual" viewBox="0 0 960 540" width="960" height="540" xmlns="http://www.w3.org/2000/svg" xmlns:xlink="http://www.w3.org/1999/xlink" version="1.1"><rect x="0" y="0" width="960" height="540" fill="#001220"></rect><path d="M0 379L10 385.7C20 392.3 40 405.7 60 407C80 408.3 100 397.7 120 392.8C140 388 160 389 180 386.8C200 384.7 220 379.3 240 384.3C260 389.3 280 404.7 300 405.3C320 406 340 392 360 395.3C380 398.7 400 419.3 420 430.3C440 441.3 460 442.7 480 432.5C500 422.3 520 400.7 540 395.5C560 390.3 580 401.7 600 405.2C620 408.7 640 404.3 660 404.2C680 404 700 408 720 409.8C740 411.7 760 411.3 780 405.7C800 400 820 389 840 383.5C860 378 880 378 900 377.5C920 377 940 376 950 375.5L960 375L960 541L950 541C940 541 920 541 900 541C880 541 860 541 840 541C820 541 800 541 780 541C760 541 740 541 720 541C700 541 680 541 660 541C640 541 620 541 600 541C580 541 560 541 540 541C520 541 500 541 480 541C460 541 440 541 420 541C400 541 380 541 360 541C340 541 320 541 300 541C280 541 260 541 240 541C220 541 200 541 180 541C160 541 140 541 120 541C100 541 80 541 60 541C40 541 20 541 10 541L0 541Z" fill="#fa7268"></path><path d="M0 400L10 406.3C20 412.7 40 425.3 60 431.3C80 437.3 100 436.7 120 436.8C140 437 160 438 180 429.7C200 421.3 220 403.7 240 396.8C260 390 280 394 300 398.3C320 402.7 340 407.3 360 406.5C380 405.7 400 399.3 420 399.2C440 399 460 405 480 411.5C500 418 520 425 540 420.3C560 415.7 580 399.3 600 399.5C620 399.7 640 416.3 660 427C680 437.7 700 442.3 720 441.2C740 440 760 433 780 426.7C800 420.3 820 414.7 840 412.5C860 410.3 880 411.7 900 418.2C920 424.7 940 436.3 950 442.2L960 448L960 541L950 541C940 541 920 541 900 541C880 541 860 541 840 541C820 541 800 541 780 541C760 541 740 541 720 541C700 541 680 541 660 541C640 541 620 541 600 541C580 541 560 541 540 541C520 541 500 541 480 541C460 541 440 541 420 541C400 541 380 541 360 541C340 541 320 541 300 541C280 541 260 541 240 541C220 541 200 541 180 541C160 541 140 541 120 541C100 541 80 541 60 541C40 541 20 541 10 541L0 541Z" fill="#f9846b"></path><path d="M0 402L10 401.3C20 400.7 40 399.3 60 406.3C80 413.3 100 428.7 120 436C140 443.3 160 442.7 180 443.3C200 444 220 446 240 448.2C260 450.3 280 452.7 300 447.2C320 441.7 340 428.3 360 424.7C380 421 400 427 420 434C440 441 460 449 480 449.2C500 449.3 520 441.7 540 441.3C560 441 580 448 600 446.7C620 445.3 640 435.7 660 427.7C680 419.7 700 413.3 720 415C740 416.7 760 426.3 780 435.5C800 444.7 820 453.3 840 449.5C860 445.7 880 429.3 900 425.7C920 422 940 431 950 435.5L960 440L960 541L950 541C940 541 920 541 900 541C880 541 860 541 840 541C820 541 800 541 780 541C760 541 740 541 720 541C700 541 680 541 660 541C640 541 620 541 600 541C580 541 560 541 540 541C520 541 500 541 480 541C460 541 440 541 420 541C400 541 380 541 360 541C340 541 320 541 300 541C280 541 260 541 240 541C220 541 200 541 180 541C160 541 140 541 120 541C100 541 80 541 60 541C40 541 20 541 10 541L0 541Z" fill="#f89571"></path><path d="M0 468L10 464.5C20 461 40 454 60 449.3C80 444.7 100 442.3 120 445.7C140 449 160 458 180 461.3C200 464.7 220 462.3 240 453.7C260 445 280 430 300 430.5C320 431 340 447 360 449.3C380 451.7 400 440.3 420 438.3C440 436.3 460 443.7 480 442.3C500 441 520 431 540 429.2C560 427.3 580 433.7 600 434.3C620 435 640 430 660 434.2C680 438.3 700 451.7 720 450C740 448.3 760 431.7 780 426.7C800 421.7 820 428.3 840 434.2C860 440 880 445 900 445.8C920 446.7 940 443.3 950 441.7L960 440L960 541L950 541C940 541 920 541 900 541C880 541 860 541 840 541C820 541 800 541 780 541C760 541 740 541 720 541C700 541 680 541 660 541C640 541 620 541 600 541C580 541 560 541 540 541C520 541 500 541 480 541C460 541 440 541 420 541C400 541 380 541 360 541C340 541 320 541 300 541C280 541 260 541 240 541C220 541 200 541 180 541C160 541 140 541 120 541C100 541 80 541 60 541C40 541 20 541 10 541L0 541Z" fill="#f6a47b"></path><path d="M0 467L10 462.8C20 458.7 40 450.3 60 449.2C80 448 100 454 120 457.8C140 461.7 160 463.3 180 463.5C200 463.7 220 462.3 240 464.2C260 466 280 471 300 469C320 467 340 458 360 458.8C380 459.7 400 470.3 420 468.5C440 466.7 460 452.3 480 445.2C500 438 520 438 540 439.5C560 441 580 444 600 448.7C620 453.3 640 459.7 660 462C680 464.3 700 462.7 720 464.5C740 466.3 760 471.7 780 469.2C800 466.7 820 456.3 840 449.5C860 442.7 880 439.3 900 441C920 442.7 940 449.3 950 452.7L960 456L960 541L950 541C940 541 920 541 900 541C880 541 860 541 840 541C820 541 800 541 780 541C760 541 740 541 720 541C700 541 680 541 660 541C640 541 620 541 600 541C580 541 560 541 540 541C520 541 500 541 480 541C460 541 440 541 420 541C400 541 380 541 360 541C340 541 320 541 300 541C280 541 260 541 240 541C220 541 200 541 180 541C160 541 140 541 120 541C100 541 80 541 60 541C40 541 20 541 10 541L0 541Z" fill="#f4b387"></path><path d="M0 473L10 475C20 477 40 481 60 477.2C80 473.3 100 461.7 120 457.7C140 453.7 160 457.3 180 464C200 470.7 220 480.3 240 485C260 489.7 280 489.3 300 488.5C320 487.7 340 486.3 360 481.7C380 477 400 469 420 463.5C440 458 460 455 480 452.8C500 450.7 520 449.3 540 449.5C560 449.7 580 451.3 600 452.5C620 453.7 640 454.3 660 460.8C680 467.3 700 479.7 720 479.5C740 479.3 760 466.7 780 459C800 451.3 820 448.7 840 450.5C860 452.3 880 458.7 900 465.2C920 471.7 940 478.3 950 481.7L960 485L960 541L950 541C940 541 920 541 900 541C880 541 860 541 840 541C820 541 800 541 780 541C760 541 740 541 720 541C700 541 680 541 660 541C640 541 620 541 600 541C580 541 560 541 540 541C520 541 500 541 480 541C460 541 440 541 420 541C400 541 380 541 360 541C340 541 320 541 300 541C280 541 260 541 240 541C220 541 200 541 180 541C160 541 140 541 120 541C100 541 80 541 60 541C40 541 20 541 10 541L0 541Z" fill="#f2c196"></path><path d="M0 467L10 466.3C20 465.7 40 464.3 60 468C80 471.7 100 480.3 120 485.2C140 490 160 491 180 488.3C200 485.7 220 479.3 240 474.8C260 470.3 280 467.7 300 469C320 470.3 340 475.7 360 479C380 482.3 400 483.7 420 483.8C440 484 460 483 480 482.2C500 481.3 520 480.7 540 477.2C560 473.7 580 467.3 600 469.3C620 471.3 640 481.7 660 484.5C680 487.3 700 482.7 720 479.3C740 476 760 474 780 475.2C800 476.3 820 480.7 840 485.5C860 490.3 880 495.7 900 494.7C920 493.7 940 486.3 950 482.7L960 479L960 541L950 541C940 541 920 541 900 541C880 541 860 541 840 541C820 541 800 541 780 541C760 541 740 541 720 541C700 541 680 541 660 541C640 541 620 541 600 541C580 541 560 541 540 541C520 541 500 541 480 541C460 541 440 541 420 541C400 541 380 541 360 541C340 541 320 541 300 541C280 541 260 541 240 541C220 541 200 541 180 541C160 541 140 541 120 541C100 541 80 541 60 541C40 541 20 541 10 541L0 541Z" fill="#f1cea6"></path><path d="M0 502L10 499C20 496 40 490 60 485.8C80 481.7 100 479.3 120 480.3C140 481.3 160 485.7 180 491.2C200 496.7 220 503.3 240 501.5C260 499.7 280 489.3 300 486.2C320 483 340 487 360 491.3C380 495.7 400 500.3 420 499.5C440 498.7 460 492.3 480 490.7C500 489 520 492 540 494.7C560 497.3 580 499.7 600 500.8C620 502 640 502 660 501.5C680 501 700 500 720 498C740 496 760 493 780 494C800 495 820 500 840 501.2C860 502.3 880 499.7 900 498C920 496.3 940 495.7 950 495.3L960 495L960 541L950 541C940 541 920 541 900 541C880 541 860 541 840 541C820 541 800 541 780 541C760 541 740 541 720 541C700 541 680 541 660 541C640 541 620 541 600 541C580 541 560 541 540 541C520 541 500 541 480 541C460 541 440 541 420 541C400 541 380 541 360 541C340 541 320 541 300 541C280 541 260 541 240 541C220 541 200 541 180 541C160 541 140 541 120 541C100 541 80 541 60 541C40 541 20 541 10 541L0 541Z" fill="#f1dab9"></path><path d="M0 514L10 513.2C20 512.3 40 510.7 60 511C80 511.3 100 513.7 120 513.5C140 513.3 160 510.7 180 509.2C200 507.7 220 507.3 240 505.2C260 503 280 499 300 497.7C320 496.3 340 497.7 360 499.8C380 502 400 505 420 507.5C440 510 460 512 480 511.3C500 510.7 520 507.3 540 506C560 504.7 580 505.3 600 504.3C620 503.3 640 500.7 660 502.8C680 505 700 512 720 511.3C740 510.7 760 502.3 780 499.5C800 496.7 820 499.3 840 500.8C860 502.3 880 502.7 900 502.2C920 501.7 940 500.3 950 499.7L960 499L960 541L950 541C940 541 920 541 900 541C880 541 860 541 840 541C820 541 800 541 780 541C760 541 740 541 720 541C700 541 680 541 660 541C640 541 620 541 600 541C580 541 560 541 540 541C520 541 500 541 480 541C460 541 440 541 420 541C400 541 380 541 360 541C340 541 320 541 300 541C280 541 260 541 240 541C220 541 200 541 180 541C160 541 140 541 120 541C100 541 80 541 60 541C40 541 20 541 10 541L0 541Z" fill="#f2e5cd"></path><path d="M0 528L10 525C20 522 40 516 60 514C80 512 100 514 120 515.2C140 516.3 160 516.7 180 516.8C200 517 220 517 240 518.3C260 519.7 280 522.3 300 523.7C320 525 340 525 360 523.7C380 522.3 400 519.7 420 520.3C440 521 460 525 480 526.3C500 527.7 520 526.3 540 524.2C560 522 580 519 600 518.7C620 518.3 640 520.7 660 520.3C680 520 700 517 720 515.8C740 514.7 760 515.3 780 516.5C800 517.7 820 519.3 840 520.8C860 522.3 880 523.7 900 523.3C920 523 940 521 950 520L960 519L960 541L950 541C940 541 920 541 900 541C880 541 860 541 840 541C820 541 800 541 780 541C760 541 740 541 720 541C700 541 680 541 660 541C640 541 620 541 600 541C580 541 560 541 540 541C520 541 500 541 480 541C460 541 440 541 420 541C400 541 380 541 360 541C340 541 320 541 300 541C280 541 260 541 240 541C220 541 200 541 180 541C160 541 140 541 120 541C100 541 80 541 60 541C40 541 20 541 10 541L0 541Z" fill="#f5f0e1"></path></svg>