<svg id="visual" viewBox="0 0 1200 100" width="1200" height="100" xmlns="http://www.w3.org/2000/svg" xmlns:xlink="http://www.w3.org/1999/xlink" version="1.1"><rect x="0" y="0" width="1200" height="100" fill="#001220"></rect><path d="M0 59L15.3 60.5C30.7 62 61.3 65 92.2 65.8C123 66.7 154 65.3 184.8 65.2C215.7 65 246.3 66 277 65.5C307.7 65 338.3 63 369.2 61.3C400 59.7 431 58.3 461.8 58C492.7 57.7 523.3 58.3 554 60.5C584.7 62.7 615.3 66.3 646 68C676.7 69.7 707.3 69.3 738.2 68.7C769 68 800 67 830.8 66.8C861.7 66.7 892.3 67.3 923 66.3C953.7 65.3 984.3 62.7 1015.2 63C1046 63.3 1077 66.7 1107.8 68.3C1138.7 70 1169.3 70 1184.7 70L1200 70L1200 101L1184.7 101C1169.3 101 1138.7 101 1107.8 101C1077 101 1046 101 1015.2 101C984.3 101 953.7 101 923 101C892.3 101 861.7 101 830.8 101C800 101 769 101 738.2 101C707.3 101 676.7 101 646 101C615.3 101 584.7 101 554 101C523.3 101 492.7 101 461.8 101C431 101 400 101 369.2 101C338.3 101 307.7 101 277 101C246.3 101 215.7 101 184.8 101C154 101 123 101 92.2 101C61.3 101 30.7 101 15.3 101L0 101Z" fill="#fa7268"></path><path d="M0 70L15.3 69.3C30.7 68.7 61.3 67.3 92.2 66.5C123 65.7 154 65.3 184.8 65.8C215.7 66.3 246.3 67.7 277 68.5C307.7 69.3 338.3 69.7 369.2 69.8C400 70 431 70 461.8 69.2C492.7 68.3 523.3 66.7 554 66.7C584.7 66.7 615.3 68.3 646 70.2C676.7 72 707.3 74 738.2 74.5C769 75 800 74 830.8 74C861.7 74 892.3 75 923 73.7C953.7 72.3 984.3 68.7 1015.2 66.8C1046 65 1077 65 1107.8 65.5C1138.7 66 1169.3 67 1184.7 67.5L1200 68L1200 101L1184.7 101C1169.3 101 1138.7 101 1107.8 101C1077 101 1046 101 1015.2 101C984.3 101 953.7 101 923 101C892.3 101 861.7 101 830.8 101C800 101 769 101 738.2 101C707.3 101 676.7 101 646 101C615.3 101 584.7 101 554 101C523.3 101 492.7 101 461.8 101C431 101 400 101 369.2 101C338.3 101 307.7 101 277 101C246.3 101 215.7 101 184.8 101C154 101 123 101 92.2 101C61.3 101 30.7 101 15.3 101L0 101Z" fill="#f89170"></path><path d="M0 78L15.3 77.2C30.7 76.3 61.3 74.7 92.2 75.2C123 75.7 154 78.3 184.8 78.3C215.7 78.3 246.3 75.7 277 75.2C307.7 74.7 338.3 76.3 369.2 77.5C400 78.7 431 79.3 461.8 78.5C492.7 77.7 523.3 75.3 554 74.2C584.7 73 615.3 73 646 72.5C676.7 72 707.3 71 738.2 71.7C769 72.3 800 74.7 830.8 75.2C861.7 75.7 892.3 74.3 923 74C953.7 73.7 984.3 74.3 1015.2 74.3C1046 74.3 1077 73.7 1107.8 73.3C1138.7 73 1169.3 73 1184.7 73L1200 73L1200 101L1184.7 101C1169.3 101 1138.7 101 1107.8 101C1077 101 1046 101 1015.2 101C984.3 101 953.7 101 923 101C892.3 101 861.7 101 830.8 101C800 101 769 101 738.2 101C707.3 101 676.7 101 646 101C615.3 101 584.7 101 554 101C523.3 101 492.7 101 461.8 101C431 101 400 101 369.2 101C338.3 101 307.7 101 277 101C246.3 101 215.7 101 184.8 101C154 101 123 101 92.2 101C61.3 101 30.7 101 15.3 101L0 101Z" fill="#f5ad82"></path><path d="M0 79L15.3 78.5C30.7 78 61.3 77 92.2 77.3C123 77.7 154 79.3 184.8 80C215.7 80.7 246.3 80.3 277 80C307.7 79.7 338.3 79.3 369.2 79.8C400 80.3 431 81.7 461.8 81.5C492.7 81.3 523.3 79.7 554 80.2C584.7 80.7 615.3 83.3 646 83.3C676.7 83.3 707.3 80.7 738.2 79.5C769 78.3 800 78.7 830.8 78.7C861.7 78.7 892.3 78.3 923 78.2C953.7 78 984.3 78 1015.2 77.8C1046 77.7 1077 77.3 1107.8 78.3C1138.7 79.3 1169.3 81.7 1184.7 82.8L1200 84L1200 101L1184.7 101C1169.3 101 1138.7 101 1107.8 101C1077 101 1046 101 1015.2 101C984.3 101 953.7 101 923 101C892.3 101 861.7 101 830.8 101C800 101 769 101 738.2 101C707.3 101 676.7 101 646 101C615.3 101 584.7 101 554 101C523.3 101 492.7 101 461.8 101C431 101 400 101 369.2 101C338.3 101 307.7 101 277 101C246.3 101 215.7 101 184.8 101C154 101 123 101 92.2 101C61.3 101 30.7 101 15.3 101L0 101Z" fill="#f2c69c"></path><path d="M0 83L15.3 83C30.7 83 61.3 83 92.2 83.3C123 83.7 154 84.3 184.8 84.3C215.7 84.3 246.3 83.7 277 83.5C307.7 83.3 338.3 83.7 369.2 84.2C400 84.7 431 85.3 461.8 86.5C492.7 87.7 523.3 89.3 554 88.8C584.7 88.3 615.3 85.7 646 85.7C676.7 85.7 707.3 88.3 738.2 88.5C769 88.7 800 86.3 830.8 85.5C861.7 84.7 892.3 85.3 923 86.3C953.7 87.3 984.3 88.7 1015.2 88.8C1046 89 1077 88 1107.8 87.8C1138.7 87.7 1169.3 88.3 1184.7 88.7L1200 89L1200 101L1184.7 101C1169.3 101 1138.7 101 1107.8 101C1077 101 1046 101 1015.2 101C984.3 101 953.7 101 923 101C892.3 101 861.7 101 830.8 101C800 101 769 101 738.2 101C707.3 101 676.7 101 646 101C615.3 101 584.7 101 554 101C523.3 101 492.7 101 461.8 101C431 101 400 101 369.2 101C338.3 101 307.7 101 277 101C246.3 101 215.7 101 184.8 101C154 101 123 101 92.2 101C61.3 101 30.7 101 15.3 101L0 101Z" fill="#f1dcbd"></path><path d="M0 89L15.3 89.2C30.7 89.3 61.3 89.7 92.2 89.7C123 89.7 154 89.3 184.8 89.8C215.7 90.3 246.3 91.7 277 92.5C307.7 93.3 338.3 93.7 369.2 94C400 94.3 431 94.7 461.8 94.2C492.7 93.7 523.3 92.3 554 92.3C584.7 92.3 615.3 93.7 646 93.3C676.7 93 707.3 91 738.2 90.5C769 90 800 91 830.8 91.3C861.7 91.7 892.3 91.3 923 91.5C953.7 91.7 984.3 92.3 1015.2 92.8C1046 93.3 1077 93.7 1107.8 94C1138.7 94.3 1169.3 94.7 1184.7 94.8L1200 95L1200 101L1184.7 101C1169.3 101 1138.7 101 1107.8 101C1077 101 1046 101 1015.2 101C984.3 101 953.7 101 923 101C892.3 101 861.7 101 830.8 101C800 101 769 101 738.2 101C707.3 101 676.7 101 646 101C615.3 101 584.7 101 554 101C523.3 101 492.7 101 461.8 101C431 101 400 101 369.2 101C338.3 101 307.7 101 277 101C246.3 101 215.7 101 184.8 101C154 101 123 101 92.2 101C61.3 101 30.7 101 15.3 101L0 101Z" fill="#f5f0e1"></path></svg>