<svg id="visual" viewBox="0 0 900 600" width="900" height="600" xmlns="http://www.w3.org/2000/svg" xmlns:xlink="http://www.w3.org/1999/xlink" version="1.1"><rect x="0" y="0" width="900" height="600" fill="#001220"></rect><path d="M0 389L21.5 392.7C43 396.3 86 403.7 128.8 407.5C171.7 411.3 214.3 411.7 257.2 409C300 406.3 343 400.7 385.8 397.3C428.7 394 471.3 393 514.2 389.5C557 386 600 380 642.8 385.2C685.7 390.3 728.3 406.7 771.2 405.7C814 404.7 857 386.3 878.5 377.2L900 368L900 601L878.5 601C857 601 814 601 771.2 601C728.3 601 685.7 601 642.8 601C600 601 557 601 514.2 601C471.3 601 428.7 601 385.8 601C343 601 300 601 257.2 601C214.3 601 171.7 601 128.8 601C86 601 43 601 21.5 601L0 601Z" fill="#fa7268"></path><path d="M0 468L21.5 465.2C43 462.3 86 456.7 128.8 447.3C171.7 438 214.3 425 257.2 428.8C300 432.7 343 453.3 385.8 453.5C428.7 453.7 471.3 433.3 514.2 432.2C557 431 600 449 642.8 459.8C685.7 470.7 728.3 474.3 771.2 467.3C814 460.3 857 442.7 878.5 433.8L900 425L900 601L878.5 601C857 601 814 601 771.2 601C728.3 601 685.7 601 642.8 601C600 601 557 601 514.2 601C471.3 601 428.7 601 385.8 601C343 601 300 601 257.2 601C214.3 601 171.7 601 128.8 601C86 601 43 601 21.5 601L0 601Z" fill="#f79973"></path><path d="M0 457L21.5 460.3C43 463.7 86 470.3 128.8 475.2C171.7 480 214.3 483 257.2 480.3C300 477.7 343 469.3 385.8 462C428.7 454.7 471.3 448.3 514.2 445.8C557 443.3 600 444.7 642.8 453.3C685.7 462 728.3 478 771.2 486C814 494 857 494 878.5 494L900 494L900 601L878.5 601C857 601 814 601 771.2 601C728.3 601 685.7 601 642.8 601C600 601 557 601 514.2 601C471.3 601 428.7 601 385.8 601C343 601 300 601 257.2 601C214.3 601 171.7 601 128.8 601C86 601 43 601 21.5 601L0 601Z" fill="#f3ba8e"></path><path d="M0 507L21.5 507.7C43 508.3 86 509.7 128.8 506.2C171.7 502.7 214.3 494.3 257.2 492.7C300 491 343 496 385.8 498.2C428.7 500.3 471.3 499.7 514.2 496.5C557 493.3 600 487.7 642.8 485.7C685.7 483.7 728.3 485.3 771.2 485.8C814 486.3 857 485.7 878.5 485.3L900 485L900 601L878.5 601C857 601 814 601 771.2 601C728.3 601 685.7 601 642.8 601C600 601 557 601 514.2 601C471.3 601 428.7 601 385.8 601C343 601 300 601 257.2 601C214.3 601 171.7 601 128.8 601C86 601 43 601 21.5 601L0 601Z" fill="#f1d7b4"></path><path d="M0 530L21.5 533.7C43 537.3 86 544.7 128.8 552C171.7 559.3 214.3 566.7 257.2 568.7C300 570.7 343 567.3 385.8 565.7C428.7 564 471.3 564 514.2 558.7C557 553.3 600 542.7 642.8 537.7C685.7 532.7 728.3 533.3 771.2 540C814 546.7 857 559.3 878.5 565.7L900 572L900 601L878.5 601C857 601 814 601 771.2 601C728.3 601 685.7 601 642.8 601C600 601 557 601 514.2 601C471.3 601 428.7 601 385.8 601C343 601 300 601 257.2 601C214.3 601 171.7 601 128.8 601C86 601 43 601 21.5 601L0 601Z" fill="#f5f0e1"></path></svg>