<svg id="visual" viewBox="0 0 960 300" width="960" height="300" xmlns="http://www.w3.org/2000/svg" xmlns:xlink="http://www.w3.org/1999/xlink" version="1.1"><rect x="0" y="0" width="960" height="300" fill="#001220"></rect><path d="M0 188L22.8 186.8C45.7 185.7 91.3 183.3 137 187.7C182.7 192 228.3 203 274 204.8C319.7 206.7 365.3 199.3 411.2 194.5C457 189.7 503 187.3 548.8 188.2C594.7 189 640.3 193 686 194.3C731.7 195.7 777.3 194.3 823 191.2C868.7 188 914.3 183 937.2 180.5L960 178L960 301L937.2 301C914.3 301 868.7 301 823 301C777.3 301 731.7 301 686 301C640.3 301 594.7 301 548.8 301C503 301 457 301 411.2 301C365.3 301 319.7 301 274 301C228.3 301 182.7 301 137 301C91.3 301 45.7 301 22.8 301L0 301Z" fill="#fa7268"></path><path d="M0 214L22.8 218.2C45.7 222.3 91.3 230.7 137 229.5C182.7 228.3 228.3 217.7 274 213.7C319.7 209.7 365.3 212.3 411.2 211C457 209.7 503 204.3 548.8 202.5C594.7 200.7 640.3 202.3 686 202C731.7 201.7 777.3 199.3 823 204.7C868.7 210 914.3 223 937.2 229.5L960 236L960 301L937.2 301C914.3 301 868.7 301 823 301C777.3 301 731.7 301 686 301C640.3 301 594.7 301 548.8 301C503 301 457 301 411.2 301C365.3 301 319.7 301 274 301C228.3 301 182.7 301 137 301C91.3 301 45.7 301 22.8 301L0 301Z" fill="#f79973"></path><path d="M0 239L22.8 236C45.7 233 91.3 227 137 226.2C182.7 225.3 228.3 229.7 274 231.8C319.7 234 365.3 234 411.2 235.7C457 237.3 503 240.7 548.8 243.3C594.7 246 640.3 248 686 246C731.7 244 777.3 238 823 234.8C868.7 231.7 914.3 231.3 937.2 231.2L960 231L960 301L937.2 301C914.3 301 868.7 301 823 301C777.3 301 731.7 301 686 301C640.3 301 594.7 301 548.8 301C503 301 457 301 411.2 301C365.3 301 319.7 301 274 301C228.3 301 182.7 301 137 301C91.3 301 45.7 301 22.8 301L0 301Z" fill="#f3ba8e"></path><path d="M0 265L22.8 264C45.7 263 91.3 261 137 258.7C182.7 256.3 228.3 253.7 274 255.2C319.7 256.7 365.3 262.3 411.2 263.8C457 265.3 503 262.7 548.8 261.8C594.7 261 640.3 262 686 259.7C731.7 257.3 777.3 251.7 823 248.2C868.7 244.7 914.3 243.3 937.2 242.7L960 242L960 301L937.2 301C914.3 301 868.7 301 823 301C777.3 301 731.7 301 686 301C640.3 301 594.7 301 548.8 301C503 301 457 301 411.2 301C365.3 301 319.7 301 274 301C228.3 301 182.7 301 137 301C91.3 301 45.7 301 22.8 301L0 301Z" fill="#f1d7b4"></path><path d="M0 272L22.8 272.5C45.7 273 91.3 274 137 273C182.7 272 228.3 269 274 267.5C319.7 266 365.3 266 411.2 267.3C457 268.7 503 271.3 548.8 272.5C594.7 273.7 640.3 273.3 686 273.3C731.7 273.3 777.3 273.7 823 275.7C868.7 277.7 914.3 281.3 937.2 283.2L960 285L960 301L937.2 301C914.3 301 868.7 301 823 301C777.3 301 731.7 301 686 301C640.3 301 594.7 301 548.8 301C503 301 457 301 411.2 301C365.3 301 319.7 301 274 301C228.3 301 182.7 301 137 301C91.3 301 45.7 301 22.8 301L0 301Z" fill="#f5f0e1"></path></svg>